Patient4_TMGait_0pt3_02_left_01_EMG.mot
version=1
nRows=29
nColumns=33
inDegrees=no
endheader
time	1LAddLong	2LGlutMax	3LGlutMed	4LIliopsoas	5LSemiMemb	6LBicFemLong	7LRecFem	8LVastMed	9LVastLat	10LGasMed	11LTibAnt	12lTibPost	13LPeroneusLong	14LSol	15LExtDigLong	16LFlexDigLong	17RAddLong	18RGlutMax	19RGlutMed	20RIliopsoas	21RSemiMemb	22RBicFemLong	23RRecFem	24RVastMed	25RVastLat	26RGasMed	27RTibAnt	28RTibPost	29RPeroneusLong	30RSol	31RExtDigLong	32RFlexDigLong
3.238	0.005646	0.13123	0.029907	0.008087	-0.009003	-0.024414	-0.00412	-0.003967	-0.021057	-0.02594	-0.12116	-0.001373	0.02182	-0.000305	-0.24948	0.000763	0.018463	0.088196	0.82001	0.009308	-0.028992	-0.23224	0.04776	-0.032959	-0.05661	0.012054	-0.20264	0.022736	-1.3477	0.56458	-0.010681	-0.000305
3.239	0.009003	0.09552	0.037689	-0.002747	-0.008392	-0.026398	0.007477	0.005341	-0.032959	-0.014801	-0.064697	0.000458	0.039063	-0.099487	-0.17731	0.003052	0.017395	0.1091	0.70755	-0.018158	-0.020142	-0.27191	-0.31128	-0.20294	-0.079041	-0.005035	-0.065002	-0.014343	-0.54306	0.34347	-0.011749	-0.011902
3.24	0.011597	0.10849	0.019684	-0.002747	-0.010071	-0.031433	-0.02243	-0.006256	-0.027161	-0.009918	0.023346	0.002289	0.019836	-0.1622	-0.036316	0.006866	0.023651	0.26062	0.61218	-0.048065	-0.018768	-0.47623	-0.46402	-0.17624	-0.09903	-0.014038	-0.10071	-0.014496	1.2601	-0.078735	-0.010986	-0.007019
3.241	0.007782	0.11917	0.007324	0.008392	-0.01709	-0.010529	0.000153	0.003204	-0.028381	-0.014496	0.063477	0.001984	-0.002136	-0.086975	0.001831	0.007477	0.029755	0.29129	-0.112	-0.003815	-0.025482	-0.1799	-0.14786	0.25574	0.056915	-0.021515	-0.053253	-0.015717	0.86594	-0.32181	-0.006256	-0.00946
3.242	0.012054	0.10193	0.000305	0.022888	-0.018005	-0.020294	-0.016785	0.00473	-0.024414	-0.021667	0.066528	0.003662	0.005341	-0.005341	-0.053253	0.003815	0.017548	0.34622	-0.62241	0.01709	-0.024261	-0.046539	0.18249	0.3389	-0.34607	-0.001984	-0.041809	-0.024567	0.20981	-0.3566	-0.009308	0.002594
3.243	-0.002289	0.11993	0.006561	0.014191	-0.005341	-0.029602	-0.016632	0.003204	-0.019989	-0.018768	-0.02121	-0.002289	0.022278	-0.033417	-0.058136	0.001526	0.015411	0.33539	-0.98114	0.053253	-0.018921	0.008545	0.21194	0.1004	-0.47745	0.011292	0.10681	-0.030365	-1.2556	0.15213	-0.009766	-0.011139
3.244	0.007782	0.09964	0.002747	0.006714	-0.015106	-0.030212	-0.009613	0.002136	-0.012054	-0.007782	-0.018311	-0.007935	-0.004578	-0.06546	0.008545	0.007019	0.005493	0.3038	-0.96008	0.034485	-0.010986	0.093384	0.24918	0.17975	-0.27222	0.007935	-0.12116	-0.031128	-0.7576	0.36026	-0.01236	-0.011292
3.245	0.020752	0.098724	-0.017395	0.003052	-0.010681	-0.050659	-0.028687	0.009308	-0.001068	-0.002747	-0.016327	0.000763	-0.006409	-0.037689	0.11871	0.003357	0.001984	0.32989	0.032043	-0.059814	0.005951	0.11322	0.06012	-0.03006	-0.029602	0.006104	0.057831	-0.025482	-0.67154	0.26642	-0.006866	-0.008087
3.246	-0.11536	0.10971	-0.023499	0.009613	-0.012665	-0.056458	-0.015564	0.003052	0.004425	-0.005798	-0.008698	0.00473	-0.014648	-0.032349	0.1915	0.005646	-0.014954	0.30685	0.92545	-0.096588	0.029144	0.26459	-0.052032	0.096588	0.33173	0.001221	-0.12726	-0.008087	-0.17487	-0.038605	-0.008545	-0.005188
3.247	0.007629	0.059967	-0.042725	0.013733	-0.00946	-0.066071	-0.010376	0.001984	0.00473	-0.018921	0.005035	0.004578	-0.002136	-0.018005	0.18326	0.008698	-0.005493	0.22476	0.26733	0.023956	0.039063	0.4512	0.021057	0.47577	0.34622	0.008545	-0.21668	-0.008698	0.6897	-0.13443	-0.009155	-0.006714
3.248	-0.010681	0.050964	-0.037842	-0.004425	-0.018005	-0.08194	-0.013885	0.001068	0.001678	-0.034485	0.022583	-0.001373	0.026398	-0.002441	0.13626	0.008392	0.003967	0.2269	-0.63431	0.042267	0.036316	0.06546	0.057373	0.56427	0.60745	-0.002899	-0.09613	-0.015259	0.61111	-0.060577	-0.010529	-0.005493
3.249	0.009308	0.054779	-0.007477	-0.001068	-0.01236	-0.072327	-0.012512	-0.001526	-0.005035	-0.026703	0.027161	-0.001526	0.007782	0.007019	0.034027	0.00885	0.019531	0.27252	-0.095367	-0.01236	0.008087	-0.3244	0.14771	0.42374	0.60791	-0.005798	-0.013428	-0.017853	-0.30868	0.058441	-0.010223	-0.011139
3.25	0.012512	0.053101	0.017853	0.001678	-0.000153	-0.057068	-0.012512	-0.001678	-0.019836	-0.007324	0.027771	0.010529	-0.015564	-0.035248	-0.10056	-0.013885	0.028076	0.2887	0.9256	0.060425	-0.061646	-0.18707	0.41214	0.22293	0.35492	-0.002289	0.003662	-0.010223	0.077057	0.084076	-0.010376	-0.007477
3.251	0.005951	0.053558	0.025482	0.003357	-0.007935	-0.055084	-0.000916	0.006104	-0.018158	-0.008698	0.012054	-0.019989	-0.014191	-0.076447	-0.14435	-0.010223	0.031586	0.24994	1.6548	0	-0.068359	0.007019	0.29144	-0.055847	0.29556	-0.004578	-0.00061	-0.013428	0.44159	0.05661	-0.009613	-0.000916
3.252	0.008545	0.003967	0.025787	0.005646	-0.00885	-0.032959	0.009003	-0.001526	-0.023651	0.001984	-0.035095	0.008392	-0.006256	-0.079041	-0.062256	-0.004272	0.020142	0.10117	1.2633	-0.005341	-0.042114	-0.021973	0.07843	-0.14099	0.27588	-0.018768	-0.003967	-0.013428	0.68298	-0.022125	-0.00885	-0.022583
3.253	0.013733	-0.008392	0.035858	-0.005951	-0.006561	-0.028687	0.004883	0.000153	-0.024414	-0.00946	-0.041962	0.036163	0.008545	-0.043945	-0.029907	0.002441	0.003204	-0.007629	-0.27206	-0.05249	-0.04425	-0.15915	-0.041046	-0.001373	0.33035	-0.012665	0.004578	-0.011597	-0.018616	-0.049896	-0.011139	-0.012207
3.254	0.009613	-0.029755	0.014038	-0.009613	-0.011292	0.003357	-0.00412	0.002441	-0.039825	-0.021667	-0.0177	0.001984	0.036774	-0.029144	-0.005188	0.000763	0.006714	-0.075836	-0.75592	-0.0383	-0.05722	-0.14984	-0.21118	-0.058441	0.25803	-0.010681	0.004883	-0.00824	-0.15625	0.009155	-0.002747	-0.011444
3.255	0.006714	-0.012054	-0.016327	0.009155	-0.018005	-0.004425	-0.019379	0.005646	-0.03952	-0.02243	0.034637	0.003662	0.033569	-0.001984	0.037537	-0.005035	0.019073	-0.04837	-0.80368	-0.11078	-0.076904	-0.13809	-0.35721	0.19486	-0.12894	-0.015564	0.002289	-0.005188	0.02594	-0.11337	-0.008698	-0.002441
3.256	0.008087	-0.02121	-0.007019	0.022583	-0.019073	0.017853	-0.025787	-0.000458	-0.03006	-0.00824	0.063324	0.006561	0.01297	-0.031586	0.066681	-0.003662	0.020447	-0.038452	-0.74036	-0.090942	-0.015717	-0.14191	-0.63843	0.46677	-0.22095	0.005493	0.000305	-0.008698	-0.21713	-0.24735	-0.006409	-0.011597
3.257	0.005646	-0.006256	0.038147	0.014801	-0.019836	0.026398	-0.016479	0.00946	-0.033264	0.011139	0.037689	0.008392	-0.012817	-0.032043	0.056915	0.003357	0.016937	-0.11597	-0.43488	-0.066528	0.009918	-0.20004	-0.3833	0.35843	-0.27359	-0.007324	0.032501	-0.007477	-0.27359	-0.083771	-0.005493	-0.00412
3.258	0.010681	0.005646	0.08255	0.010986	-0.015259	0.034485	0.009918	0.004425	-0.031281	-0.024109	0.017395	0.009918	-0.007172	-0.032501	0.047455	0.003967	0.032043	-0.24857	-0.77072	-0.007782	0.026398	-0.12787	0.020599	0.15823	-0.4834	-0.027466	0.043335	-0.012817	-0.28076	0.010071	-0.010681	-0.005035
3.259	0.004883	0.019531	0.04837	0	-0.024567	0.015106	0.009308	0.001221	-0.026703	-0.001831	0.023346	-0.00061	-0.002747	-0.007172	0.038452	-0.006256	0.028992	-0.2034	0.091858	0.11398	0.039978	-0.045776	0.11444	-0.36911	-0.57159	-0.023956	0.037231	-0.009003	-0.13001	0.10864	-0.003967	-0.004272
3.26	0.009308	0.008392	-0.024719	0.001984	-0.011139	0.008087	0.001526	0.006256	-0.035248	-0.007935	0.090485	0.002747	0.005646	-0.016785	0.041656	0.010223	0.036011	-0.15091	-0.055695	0.15671	-0.020752	-0.010071	0.22339	0.20767	-0.34119	-0.009766	0.01709	-0.003662	0.18143	0.14648	-0.006561	-0.008698
3.261	0.005646	0.006866	-0.013275	0.000305	-0.009308	0.010834	0.002747	0.005341	-0.032959	-0.023041	0.018463	0.002899	0.029907	0.000305	0.20584	0.000305	0.03479	-0.16251	-0.58029	0.083923	-0.015564	0.003204	-0.076294	0.063477	-0.0354	-0.008545	0.010681	0.047455	0.31693	0.09079	-0.00824	-0.005493
3.262	0.006256	0.026245	-0.009766	0.00473	-0.012817	0.012512	-0.016785	0.001526	-0.037231	-0.009155	0.058746	0	0.012207	-0.005646	0.034485	-0.00473	0.014648	-0.093994	-0.52033	-0.059509	0.013428	0.022736	0.090942	-0.18051	0.36011	0.006409	0.037842	-0.18219	0.11902	-0.029144	-0.004272	-0.014801
3.263	0.005493	0.016022	-0.014954	0.011292	-0.014954	0.020294	-0.018005	0.001221	-0.031281	-0.002899	0.007172	-0.002289	0.022736	-0.00824	-0.088043	0.00351	0.003967	-0.13443	-0.63614	-0.16037	0.021057	0.019226	0.22049	-0.26428	0.44388	0.014191	0.023499	0.12085	-0.15457	-0.039673	-0.009918	-0.011902
3.264	0.010681	0.010529	-0.001831	0.020447	-0.020294	0.00824	-0.017853	0.000763	-0.039673	0.005341	-0.095825	0.005341	0.017548	-0.034943	-0.16373	0.001831	-0.011597	-0.14694	-0.26047	-0.13657	0.007324	0.001373	0.1857	-0.13901	0.30014	0.027313	0.014954	0.02594	-0.12177	-0.003662	-0.010223	-0.00946
3.265	0.004272	0.003357	0.04776	0.009308	-0.013885	0.003815	-0.02655	0.001984	-0.034027	0.016785	-0.10773	0.003204	0.015564	-0.023804	-0.11292	-0.008698	-0.000153	-0.11795	0.088196	0.038147	-0.022125	-0.062561	0.021667	0.37705	0.24735	0.009155	0.000458	0.036011	-0.10223	-0.024109	-0.007324	-0.003815
3.266	0.004272	-0.001831	0.070038	0.000305	-0.021057	-0.002899	-0.006409	0.004578	-0.034485	0.001831	-0.11917	0.001984	0.013275	-0.043335	-0.063934	0.002136	0.001526	-0.00885	0.18097	0.045319	-0.028534	-0.09613	0.085144	0.58609	0.30334	-0.005493	-0.000305	0.010223	-0.094299	-0.10696	-0.008392	-0.002594
